<svg width="148" height="148" viewBox="0 0 148 148" fill="none" xmlns="http://www.w3.org/2000/svg">
<g filter="url(#filter0_d_1_130)">
<rect x="30" y="26" width="88" height="88" rx="8" fill="#705AE2"/>
<path d="M57.1248 88.1655L63.9709 88.1655L65.8162 83.631L77.9521 83.631L78.8502 85.6693L67.1633 85.6693L65.238 90.2954L53.6926 90.2954C59.8436 76.7224 65.9556 63.1881 72.0287 49.6925L75.8546 49.6925C82.0057 63.1922 88.1567 76.7306 94.3077 90.3076L83.4204 90.3076L79.7298 81.9649L64.4814 81.9649L62.4578 86.7618L59.7759 86.7618L62.7776 79.9326L81.0092 79.9326L84.7367 88.1716L90.8262 88.1716L74.6183 51.7553L73.2712 51.7553L57.1248 88.1655Z" fill="white"/>
<path d="M66.8899 76.4501L77.0698 76.4501C76.0303 74.2042 73.9513 69.6697 73.9513 69.6697L71.823 74.8511L69.4426 74.8511C70.9311 71.287 73.9451 64.0916 73.9451 64.0916C73.9451 64.0916 78.2508 73.5817 80.4344 78.3237L63.3531 78.3237C66.8776 70.4875 73.939 54.7602 73.939 54.7602C73.939 54.7602 83.5714 76.0717 88.3877 86.7091L85.8842 86.7091L73.939 59.7707C73.939 59.7707 69.2396 70.8964 66.8899 76.4501Z" fill="white"/>
</g>
<defs>
<filter id="filter0_d_1_130" x="0" y="0" width="148" height="148" filterUnits="userSpaceOnUse" color-interpolation-filters="sRGB">
<feFlood flood-opacity="0" result="BackgroundImageFix"/>
<feColorMatrix in="SourceAlpha" type="matrix" values="0 0 0 0 0 0 0 0 0 0 0 0 0 0 0 0 0 0 127 0" result="hardAlpha"/>
<feOffset dy="4"/>
<feGaussianBlur stdDeviation="15"/>
<feComposite in2="hardAlpha" operator="out"/>
<feColorMatrix type="matrix" values="0 0 0 0 0 0 0 0 0 0 0 0 0 0 0 0 0 0 0.1 0"/>
<feBlend mode="normal" in2="BackgroundImageFix" result="effect1_dropShadow_1_130"/>
<feBlend mode="normal" in="SourceGraphic" in2="effect1_dropShadow_1_130" result="shape"/>
</filter>
</defs>
</svg>
