<svg width="48" height="48" viewBox="0 0 48 48" fill="none" xmlns="http://www.w3.org/2000/svg">
<g clip-path="url(#clip0_1_240)">
<path d="M42.0736 15.6896H38.6136V8.88066C38.6136 7.71469 38.1499 6.62794 37.3911 5.83341L35.1553 3.49397C33.258 1.53909 33.0186 0.986812 31.8885 0.438281C31.3635 0.17625 30.6717 0 29.9742 0H13.6437C11.211 0 9.2326 1.97934 9.2326 4.41112V28.1991H8.30232C6.89888 28.1991 5.75747 29.3405 5.75747 30.7439C5.75747 31.4423 6.04022 32.0748 6.49641 32.5347C6.04022 32.9947 5.75747 33.6271 5.75747 34.3255C5.75747 34.5876 5.79422 34.7431 5.80744 34.8289C0.285004 35.3906 -1.91493 42.2259 2.12672 45.9358C3.34735 47.0565 4.96754 47.6917 6.72441 47.6201C7.305 47.6201 19.2583 47.6154 19.2734 47.6154C20.6759 47.6154 21.8183 46.474 21.8183 45.0706C21.8183 44.3722 21.5355 43.7397 21.0793 43.2798C21.5082 42.8471 21.7834 42.2637 21.8145 41.6152H22.7693V42.1252C22.7693 45.3647 25.4047 48 28.6442 48H42.0736C45.3131 48 47.9484 45.3647 47.9484 42.1252V21.5645C47.9485 18.3249 45.3131 15.6896 42.0736 15.6896ZM36.0706 6.63553C36.0706 6.63553 36.0715 6.63553 36.0725 6.63741C36.0734 6.63741 36.0734 6.63741 36.0734 6.63741C36.0743 6.63928 36.0762 6.64116 36.0772 6.64209L36.0781 6.64303C36.08 6.64584 36.0818 6.64772 36.0837 6.64866C36.0847 6.64959 36.0856 6.65053 36.0865 6.65241C36.0875 6.65334 36.0884 6.65334 36.0884 6.65428C36.0893 6.65522 36.0903 6.65522 36.0912 6.65709C36.0931 6.65803 36.094 6.65991 36.095 6.66084H32.3163V2.66644C35.2779 5.79666 35.9453 6.50259 36.0706 6.63553ZM8.30232 29.7071H19.2735C19.8447 29.7071 20.3103 30.1728 20.3103 30.7439C20.3103 31.3161 19.8446 31.7807 19.2735 31.7807H8.30232C7.7311 31.7807 7.26554 31.3161 7.26554 30.7439C7.26544 30.1727 7.7311 29.7071 8.30232 29.7071ZM8.30232 33.2887H19.2735C19.8447 33.2887 20.3103 33.7544 20.3103 34.3255C20.3103 34.8977 19.8446 35.3623 19.2735 35.3623H11.6954C11.3872 35.2209 11.0677 35.1059 10.7406 35.0173C10.2523 34.8844 9.7471 34.809 9.2325 34.7958C9.08457 34.792 8.93654 34.793 8.7886 34.7995H7.38141C7.30697 34.6572 7.26544 34.4961 7.26544 34.3254C7.26544 33.7544 7.7311 33.2887 8.30232 33.2887ZM20.3103 37.9072C20.3103 38.4794 19.8446 38.944 19.2735 38.944H15.0537C14.7672 38.1815 14.3355 37.4793 13.7738 36.8705H19.2735C19.8446 36.8705 20.3103 37.336 20.3103 37.9072ZM4.63388 36.5538C4.17488 36.9893 3.76669 37.5067 3.44625 38.0769H2.56782C3.14185 37.3653 3.85538 36.8591 4.63388 36.5538ZM1.76569 39.4907H2.86379C2.83932 39.5963 2.71482 40.0025 2.65829 40.6208H1.49804C1.54332 40.2325 1.63285 39.8536 1.76569 39.4907ZM1.88729 43.2279C1.7205 42.849 1.60079 42.4485 1.53291 42.0347H2.68472C2.89116 43.2053 2.90241 43.0036 2.95425 43.2279H1.88729ZM2.82797 44.6417C3.29072 44.6408 3.55941 44.6436 3.6225 44.6398C3.90432 45.0847 4.2436 45.4966 4.63669 45.867C3.95335 45.5984 3.34547 45.1884 2.82797 44.6417ZM9.26175 46.2073C6.50297 46.3261 4.16729 44.1893 4.05038 41.4239C3.86091 37.0213 9.11935 34.4858 12.4305 37.5255C15.6947 40.5218 13.7078 46.0244 9.26175 46.2073ZM19.2735 46.1074H13.1875C13.8614 45.5371 14.4147 44.8312 14.8077 44.0338H19.2735C19.8447 44.0338 20.3103 44.4995 20.3103 45.0706C20.3103 45.6427 19.8446 46.1074 19.2735 46.1074ZM20.3018 41.6152C20.2396 42.128 19.8023 42.5257 19.2735 42.5257H15.328C15.4647 41.8717 15.5033 41.1666 15.4194 40.4522H19.2735C19.9088 40.4521 20.3828 41.0205 20.3018 41.6152ZM22.7693 40.1071H21.4083C21.3131 39.9592 21.2028 39.8225 21.0793 39.6981C22.0643 38.7046 22.0652 37.1098 21.0793 36.1164C21.5355 35.6565 21.8183 35.0241 21.8183 34.3256C21.8183 33.6272 21.5355 32.9948 21.0793 32.5348C22.6646 30.9363 21.5318 28.1992 19.2734 28.1992H10.7406V4.41112C10.7406 2.81072 12.0431 1.50806 13.6436 1.50806H30.8083V7.41497C30.8083 7.83159 31.1457 8.169 31.5623 8.169H37.0159C37.1733 8.77978 37.0762 8.57803 37.1054 15.6895H28.6442C25.4047 15.6895 22.7693 18.3248 22.7693 21.5644V40.1071ZM46.5347 42.1252C46.5347 44.5852 44.5337 46.5863 42.0736 46.5863H28.6443C26.1852 46.5863 24.1832 44.5853 24.1832 42.1252V21.5645C24.1832 19.1045 26.1851 17.1034 28.6443 17.1034H42.0737C44.5337 17.1034 46.5348 19.1044 46.5348 21.5645V42.1252H46.5347Z" fill="#2B1D76"/>
<path d="M42.0237 18.7067H28.6943C27.3835 18.7067 26.321 19.7692 26.321 21.0799V23.6673C26.321 24.978 27.3835 26.0405 28.6943 26.0405H31.2589C31.6493 26.0405 31.9658 25.724 31.9658 25.3337C31.9658 24.9433 31.6493 24.6268 31.2589 24.6268H28.6943C28.1665 24.6268 27.7347 24.195 27.7347 23.6673V21.0799C27.7347 20.5522 28.1665 20.1204 28.6943 20.1204H42.0237C42.5534 20.1204 42.9833 20.5512 42.9833 21.0799V23.6673C42.9833 24.196 42.5534 24.6268 42.0237 24.6268H34.3072C33.9168 24.6268 33.6003 24.9433 33.6003 25.3337C33.6003 25.724 33.9168 26.0405 34.3072 26.0405H42.0237C43.333 26.0405 44.397 24.9754 44.397 23.6673V21.0799C44.397 19.7718 43.3329 18.7067 42.0237 18.7067Z" fill="#2B1D76"/>
<path d="M30.2165 33.6026H27.8007C26.9854 33.6026 26.321 34.2662 26.321 35.0823V37.4972C26.321 38.3134 26.9855 38.9769 27.8007 38.9769H30.2165C31.0328 38.9769 31.6962 38.3133 31.6962 37.4972V35.0823C31.6962 34.2662 31.0327 33.6026 30.2165 33.6026ZM30.2824 37.4972C30.2824 37.5339 30.2522 37.5632 30.2164 37.5632H27.8006C27.7648 37.5632 27.7346 37.5339 27.7346 37.4972V35.0823C27.7346 35.0456 27.7648 35.0163 27.8006 35.0163H30.2164C30.2522 35.0163 30.2824 35.0456 30.2824 35.0823V37.4972Z" fill="#2B1D76"/>
<path d="M42.9936 27.2876H40.5787C39.7625 27.2876 39.099 27.9512 39.099 28.7673V31.1822C39.099 31.9984 39.7626 32.6619 40.5787 32.6619H42.9936C43.8098 32.6619 44.4733 31.9983 44.4733 31.1822V28.7673C44.4733 27.9512 43.8097 27.2876 42.9936 27.2876ZM43.0596 31.1822C43.0596 31.2189 43.0303 31.2482 42.9936 31.2482H40.5787C40.5429 31.2482 40.5127 31.2189 40.5127 31.1822C40.542 28.7928 40.4514 28.7013 40.5787 28.7013H42.9936C43.0303 28.7013 43.0596 28.7306 43.0596 28.7673V31.1822Z" fill="#2B1D76"/>
<path d="M30.2165 27.2876H27.8007C26.9854 27.2876 26.321 27.9512 26.321 28.7673V31.1822C26.321 31.9984 26.9855 32.6619 27.8007 32.6619H30.2165C31.0328 32.6619 31.6962 31.9983 31.6962 31.1822V28.7673C31.6962 27.9512 31.0327 27.2876 30.2165 27.2876ZM30.2824 31.1822C30.2824 31.2189 30.2522 31.2482 30.2164 31.2482H27.8006C27.7648 31.2482 27.7346 31.2189 27.7346 31.1822V28.7673C27.7346 28.7306 27.7648 28.7013 27.8006 28.7013H30.2164C30.2522 28.7013 30.2824 28.7306 30.2824 28.7673V31.1822Z" fill="#2B1D76"/>
<path d="M31.3239 40.1071C31.0524 39.8017 30.6566 39.6085 30.2165 39.6085H27.8007C27.3606 39.6085 26.9647 39.8017 26.6942 40.1071C26.1805 40.683 26.3549 41.3107 26.321 41.6151V43.5031C26.321 44.3194 26.9855 44.9828 27.8007 44.9828H30.2165C31.0328 44.9828 31.6962 44.3193 31.6962 43.5031V41.6151C31.6623 41.3174 31.8348 40.683 31.3239 40.1071ZM30.2165 43.5691C27.83 43.5398 27.7347 43.6304 27.7347 43.5031C27.7347 40.946 27.7064 41.0223 27.8007 41.0223H30.2165C30.3324 41.0223 30.2608 41.1834 30.2825 41.6151C30.2824 41.6152 30.3437 43.5691 30.2165 43.5691Z" fill="#2B1D76"/>
<path d="M42.6184 33.6026H40.9538C39.9312 33.6026 39.0989 34.4349 39.0989 35.4575V42.9573C39.0989 44.0743 40.0075 44.9829 41.1235 44.9829H42.4488C43.5657 44.9829 44.4734 44.0743 44.4734 42.9573V35.4575C44.4733 34.4349 43.642 33.6026 42.6184 33.6026ZM42.4488 43.5691H41.1235C40.7871 43.5691 40.5128 43.2948 40.5128 42.9573V35.4575C40.5128 35.2143 40.7107 35.0164 40.9538 35.0164H42.6184C42.8616 35.0164 43.0595 35.2143 43.0595 35.4575V42.9573C43.0596 43.2948 42.7862 43.5691 42.4488 43.5691Z" fill="#2B1D76"/>
<path d="M18.2482 20.5339C17.3862 20.2172 16.7635 19.9884 16.7635 19.1899C16.7635 18.4621 17.2469 18.0931 18.2001 18.0931C19.2119 18.0931 19.4843 18.5385 19.8408 18.5385C20.2287 18.5385 20.4433 18.1268 20.4433 17.8421C20.4433 17.2532 19.4827 16.9611 18.6239 16.8841V16.3531C18.6239 15.9837 18.3234 15.6832 17.9541 15.6832C17.5847 15.6832 17.2842 15.9837 17.2842 16.3531V16.9687C16.11 17.2475 15.4648 18.0586 15.4648 19.2603C15.4648 20.9056 16.6761 21.3607 17.6496 21.7266C18.6026 22.0848 19.3555 22.3677 19.3555 23.4559C19.3555 24.3546 18.8565 24.8104 17.872 24.8104C16.4313 24.8104 16.4178 23.8376 15.8682 23.8376C15.5279 23.8376 15.2538 24.2186 15.2538 24.534C15.2538 25.091 16.0834 25.8232 17.2842 26.0133V26.5264C17.2842 26.8957 17.5847 27.1962 17.9541 27.1962C18.3234 27.1962 18.6239 26.8957 18.6239 26.5264V25.9995C19.9156 25.7564 20.6543 24.8079 20.6543 23.3854C20.6543 21.4179 19.3202 20.9278 18.2482 20.5339Z" fill="#2B1D76"/>
<path d="M37.5928 40.0233C37.327 39.7669 36.965 39.6085 36.5673 39.6085H34.1515C33.7114 39.6085 33.3155 39.8017 33.044 40.1071C32.5323 40.6839 32.7057 41.3107 32.6718 41.6151V43.5031C32.6718 44.3194 33.3353 44.9828 34.1515 44.9828H36.5673C37.3826 44.9828 38.0461 44.3193 38.0461 43.5031V41.0873C38.0461 40.6699 37.8717 40.2919 37.5928 40.0233ZM36.5673 43.5691C34.1808 43.5398 34.0855 43.6304 34.0855 43.5031V41.0873C34.0855 41.0515 34.1157 41.0223 34.1515 41.0223H36.5673C36.6031 41.0223 36.6323 41.0515 36.6323 41.0873C36.604 43.4796 36.6926 43.5691 36.5673 43.5691Z" fill="#2B1D76"/>
<path d="M36.5673 27.2876H34.1515C33.3353 27.2876 32.6718 27.9512 32.6718 28.7673V31.1822C32.6718 31.9984 33.3353 32.6619 34.1515 32.6619H36.5673C36.7577 32.6619 36.9386 32.6261 37.1055 32.5601C37.6559 32.3443 38.0462 31.8079 38.0462 31.1821V28.7673C38.0461 27.9483 37.3788 27.2876 36.5673 27.2876ZM36.5673 31.2482H34.1515C34.1157 31.2482 34.0855 31.2189 34.0855 31.1822V28.7673C34.0855 28.6401 34.1732 28.7297 36.5673 28.7013C36.6031 28.7013 36.6323 28.7306 36.6323 28.7673V31.1822C36.6323 31.2189 36.6031 31.2482 36.5673 31.2482Z" fill="#2B1D76"/>
<path d="M37.1055 33.7044C36.9387 33.6384 36.7577 33.6026 36.5673 33.6026H34.1515C33.3353 33.6026 32.6718 34.2662 32.6718 35.0823V37.4972C32.6718 38.3134 33.3353 38.9769 34.1515 38.9769H36.5673C37.3826 38.9769 38.0461 38.3133 38.0461 37.4972V35.0823C38.0461 34.4566 37.6559 33.9202 37.1055 33.7044ZM36.6323 37.4972C36.6323 37.5339 36.6031 37.5632 36.5673 37.5632H34.1515C34.1157 37.5632 34.0855 37.5339 34.0855 37.4972V35.0823C34.0855 35.0456 34.1157 35.0163 34.1515 35.0163H36.5673C36.6031 35.0163 36.6323 35.0456 36.6323 35.0823V37.4972Z" fill="#2B1D76"/>
<path d="M32.487 9.6601H30.7113C30.3211 9.6601 30.0044 9.97678 30.0044 10.367C30.0044 10.7581 30.3211 11.0738 30.7113 11.0738H32.487C32.8772 11.0738 33.1939 10.7581 33.1939 10.367C33.194 9.97678 32.8772 9.6601 32.487 9.6601Z" fill="#2B1D76"/>
<path d="M27.8836 9.6601H15.3478C14.9576 9.6601 14.6409 9.97678 14.6409 10.367C14.6409 10.7581 14.9576 11.0738 15.3478 11.0738H27.8837C28.2739 11.0738 28.5906 10.7581 28.5906 10.367C28.5906 9.97678 28.2739 9.6601 27.8836 9.6601Z" fill="#2B1D76"/>
<path d="M17.5948 13.1693H15.3478C14.9576 13.1693 14.6409 13.4859 14.6409 13.8761C14.6409 14.2663 14.9576 14.583 15.3478 14.583H17.5948C17.985 14.583 18.3017 14.2663 18.3017 13.8761C18.3017 13.4859 17.985 13.1693 17.5948 13.1693Z" fill="#2B1D76"/>
<path d="M32.487 13.1693H20.4224C20.0322 13.1693 19.7155 13.4859 19.7155 13.8761C19.7155 14.2663 20.0322 14.583 20.4224 14.583H32.487C32.8772 14.583 33.1939 14.2663 33.1939 13.8761C33.194 13.4859 32.8772 13.1693 32.487 13.1693Z" fill="#2B1D76"/>
<path d="M8.64684 39.8587C8.64684 39.681 8.71228 39.63 8.7735 39.5961C8.96344 39.491 9.39919 39.46 9.79838 39.6653C9.90441 39.7198 10.0246 39.7816 10.181 39.7816C10.8782 39.7816 11.4296 38.4861 9.76416 38.1997V38.1551C9.76416 37.7602 9.44278 37.4388 9.04781 37.4388C8.65284 37.4388 8.33147 37.7602 8.33147 38.1551V38.2911C7.63359 38.5442 7.23881 39.1197 7.23881 39.9009C7.23881 41.1066 8.11472 41.4357 8.75447 41.676C9.3645 41.9052 9.57544 42.0055 9.57544 42.4205C9.57544 42.6799 9.50559 42.92 8.9985 42.92C8.25956 42.92 8.34806 42.3359 7.79503 42.3359C7.40419 42.3359 7.11197 42.7224 7.11197 43.0681C7.11197 43.5578 7.62122 44.0227 8.33147 44.2111V44.2647C8.33147 44.6597 8.65284 44.9811 9.04781 44.9811C9.44278 44.9811 9.76416 44.6598 9.76416 44.2647V44.1923C10.5327 43.9453 10.9836 43.2835 10.9836 42.3783C10.9836 40.2302 8.64684 40.5528 8.64684 39.8587Z" fill="#2B1D76"/>
</g>
<defs>
<clipPath id="clip0_1_240">
<rect width="48" height="48" fill="white"/>
</clipPath>
</defs>
</svg>
