<svg width="48" height="48" viewBox="0 0 48 48" fill="none" xmlns="http://www.w3.org/2000/svg">
<path d="M43.5 18.0001C43.5 17.8011 43.421 17.6104 43.2803 17.4697C43.1397 17.3291 42.9489 17.2501 42.75 17.2501H30V5.25006C30 5.05115 29.921 4.86038 29.7803 4.71973C29.6397 4.57908 29.4489 4.50006 29.25 4.50006C28.496 4.50411 27.7435 4.56932 27 4.69506V2.25006C27 2.05115 26.921 1.86038 26.7803 1.71973C26.6397 1.57908 26.4489 1.50006 26.25 1.50006H8.25C8.05117 1.50154 7.86051 1.57941 7.7175 1.71756L1.7175 7.71756C1.57935 7.86057 1.50148 8.05123 1.5 8.25006V45.7501C1.5 45.949 1.57902 46.1397 1.71967 46.2804C1.86032 46.421 2.05109 46.5001 2.25 46.5001H26.25C26.4489 46.5001 26.6397 46.421 26.7803 46.2804C26.921 46.1397 27 45.949 27 45.7501V32.8051C27.7435 32.9308 28.496 32.996 29.25 33.0001C33.0283 32.9967 36.6509 31.4943 39.3225 28.8226C41.9942 26.1509 43.4966 22.5284 43.5 18.7501C43.5 18.5476 43.4925 18.3451 43.485 18.1426C43.4941 18.0956 43.4991 18.0479 43.5 18.0001ZM28.5 6.02256V17.6926L19.38 26.8126C17.8927 24.9944 16.9369 22.8005 16.6182 20.4733C16.2995 18.146 16.6302 15.776 17.5738 13.6249C18.5174 11.4738 20.0373 9.62535 21.9654 8.28376C23.8936 6.94217 26.155 6.15963 28.5 6.02256ZM7.5 4.05756V7.50006H4.0575L7.5 4.05756ZM25.5 45.0001H3V9.00006H8.25C8.44891 9.00006 8.63968 8.92104 8.78033 8.78039C8.92098 8.63974 9 8.44897 9 8.25006V3.00006H25.5V5.01756C22.4849 5.83627 19.823 7.62455 17.9252 10.1064C16.0273 12.5883 14.9991 15.6257 14.9991 18.7501C14.9991 21.8744 16.0273 24.9119 17.9252 27.3937C19.823 29.8756 22.4849 31.6639 25.5 32.4826V45.0001ZM29.25 31.5001C25.9448 31.5002 22.7699 30.2114 20.4 27.9076L29.5575 18.7501H42C41.9952 22.1301 40.6504 25.3704 38.2604 27.7604C35.8703 30.1505 32.63 31.4953 29.25 31.5001Z" fill="#2B1D76"/>
<path d="M32.25 15.75H45.75V15.7455C45.8498 15.7432 45.9482 15.7209 46.0393 15.6799C46.1303 15.6388 46.2122 15.5799 46.28 15.5065C46.3478 15.4332 46.4001 15.347 46.4339 15.253C46.4678 15.159 46.4823 15.0592 46.4768 14.9595C46.2777 11.3218 44.6918 7.89874 42.0453 5.39498C39.3988 2.89122 35.8932 1.49725 32.25 1.5C32.0511 1.5 31.8603 1.57902 31.7197 1.71967C31.579 1.86033 31.5 2.05109 31.5 2.25V15C31.5 15.1989 31.579 15.3897 31.7197 15.5303C31.8603 15.671 32.0511 15.75 32.25 15.75ZM44.9115 14.25H33V3.02175C35.9883 3.19547 38.82 4.41603 40.9981 6.46924C43.1763 8.52246 44.5618 11.2772 44.9115 14.25Z" fill="#2B1D76"/>
<path d="M14.25 30C12.915 30 11.6099 30.3959 10.4999 31.1376C9.38987 31.8793 8.52471 32.9335 8.01382 34.1669C7.50292 35.4003 7.36925 36.7575 7.6297 38.0669C7.89015 39.3762 8.53303 40.579 9.47703 41.523C10.421 42.467 11.6238 43.1099 12.9331 43.3703C14.2425 43.6308 15.5997 43.4971 16.8331 42.9862C18.0665 42.4753 19.1207 41.6101 19.8624 40.5001C20.6041 39.3901 21 38.085 21 36.75C20.9972 34.9606 20.2852 33.2454 19.0199 31.9801C17.7546 30.7148 16.0394 30.0028 14.25 30ZM14.25 42C13.2117 42 12.1966 41.6921 11.3333 41.1152C10.4699 40.5383 9.797 39.7184 9.39964 38.7591C9.00228 37.7998 8.89831 36.7442 9.10088 35.7258C9.30345 34.7074 9.80347 33.7719 10.5377 33.0377C11.2719 32.3035 12.2074 31.8034 13.2258 31.6009C14.2442 31.3983 15.2998 31.5023 16.2591 31.8996C17.2184 32.297 18.0383 32.9699 18.6152 33.8333C19.1921 34.6966 19.5 35.7116 19.5 36.75C19.4984 38.1419 18.9448 39.4763 17.9606 40.4606C16.9763 41.4448 15.6419 41.9984 14.25 42Z" fill="#2B1D76"/>
<path d="M16.5 38.25C16.4976 38.7139 16.3523 39.1659 16.0839 39.5443C15.8155 39.9228 15.4371 40.2093 15 40.365V41.25H13.5V40.365C13.0629 40.2093 12.6845 39.9228 12.4161 39.5443C12.1477 39.1659 12.0024 38.7139 12 38.25H13.5C13.5 38.3983 13.544 38.5433 13.6264 38.6667C13.7088 38.79 13.8259 38.8861 13.963 38.9429C14.1 38.9997 14.2508 39.0145 14.3963 38.9856C14.5418 38.9567 14.6754 38.8852 14.7803 38.7803C14.8852 38.6754 14.9567 38.5418 14.9856 38.3963C15.0145 38.2508 14.9997 38.1 14.9429 37.963C14.8861 37.8259 14.79 37.7088 14.6667 37.6264C14.5433 37.544 14.3983 37.5 14.25 37.5C13.7223 37.4959 13.2129 37.3065 12.8108 36.9649C12.4086 36.6232 12.1393 36.1511 12.05 35.6311C11.9606 35.111 12.0569 34.5761 12.3219 34.1198C12.587 33.6636 13.004 33.315 13.5 33.135V32.25H15V33.135C15.4371 33.2907 15.8155 33.5772 16.0839 33.9557C16.3523 34.3341 16.4976 34.7861 16.5 35.25H15C15 35.1017 14.956 34.9567 14.8736 34.8333C14.7912 34.71 14.6741 34.6139 14.537 34.5571C14.4 34.5003 14.2492 34.4855 14.1037 34.5144C13.9582 34.5433 13.8246 34.6148 13.7197 34.7197C13.6148 34.8246 13.5433 34.9582 13.5144 35.1037C13.4855 35.2492 13.5003 35.4 13.5571 35.537C13.6139 35.6741 13.71 35.7912 13.8333 35.8736C13.9567 35.956 14.1017 36 14.25 36C14.8462 36.0018 15.4175 36.2394 15.839 36.661C16.2606 37.0825 16.4982 37.6538 16.5 38.25Z" fill="#2B1D76"/>
<path d="M6 12H13.5V13.5H6V12Z" fill="#2B1D76"/>
<path d="M6 16.5H13.5V18H6V16.5Z" fill="#2B1D76"/>
<path d="M6 21H13.5V22.5H6V21Z" fill="#2B1D76"/>
<path d="M6 25.5H13.5V27H6V25.5Z" fill="#2B1D76"/>
<path d="M30 36H33V37.5H30V36Z" fill="#2B1D76"/>
<path d="M34.5 36H46.5V37.5H34.5V36Z" fill="#2B1D76"/>
<path d="M30 40.5H33V42H30V40.5Z" fill="#2B1D76"/>
<path d="M34.5 40.5H46.5V42H34.5V40.5Z" fill="#2B1D76"/>
<path d="M30 45H33V46.5H30V45Z" fill="#2B1D76"/>
<path d="M34.5 45H46.5V46.5H34.5V45Z" fill="#2B1D76"/>
</svg>
