<svg width="48" height="48" viewBox="0 0 48 48" fill="none" xmlns="http://www.w3.org/2000/svg">
<g clip-path="url(#clip0_1_201)">
<path d="M18.0007 20C12.4867 20 8.00066 15.514 8.00066 10C8.00066 4.486 12.4867 0 18.0007 0C23.5147 0 28.0007 4.486 28.0007 10C28.0007 15.514 23.5147 20 18.0007 20ZM18.0007 2C13.5887 2 10.0007 5.588 10.0007 10C10.0007 14.412 13.5887 18 18.0007 18C22.4127 18 26.0007 14.412 26.0007 10C26.0007 5.588 22.4127 2 18.0007 2Z" fill="#2B1D76"/>
<path d="M17 41.9999H0.999992C0.447992 41.9999 -7.62939e-06 41.5519 -7.62939e-06 40.9999V32.9999C-7.62939e-06 28.0379 4.03799 23.9999 8.99999 23.9999H21C21.552 23.9999 22 24.4479 22 24.9999C22 25.5519 21.552 25.9999 21 25.9999H8.99999C5.13999 25.9999 1.99999 29.1399 1.99999 32.9999V39.9999H17C17.552 39.9999 18 40.4479 18 40.9999C18 41.5519 17.552 41.9999 17 41.9999Z" fill="#2B1D76"/>
<path d="M33.999 40C31.243 40 28.999 37.756 28.999 35C28.999 32.244 31.243 30 33.999 30C36.755 30 38.999 32.244 38.999 35C38.999 37.756 36.755 40 33.999 40ZM33.999 32C32.345 32 30.999 33.346 30.999 35C30.999 36.654 32.345 38 33.999 38C35.653 38 36.999 36.654 36.999 35C36.999 33.346 35.653 32 33.999 32Z" fill="#2B1D76"/>
<path d="M35.5935 47.9997H32.4035C31.3715 47.9997 30.5155 47.2257 30.4135 46.1977L30.1595 43.6557C29.5535 43.3857 28.9755 43.0497 28.4295 42.6497L26.0935 43.7037C25.1555 44.1317 24.0535 43.7737 23.5395 42.8797L21.9455 40.1177C21.4295 39.2237 21.6735 38.0957 22.5095 37.4937L24.5675 36.0137C24.5275 35.7037 24.4995 35.3597 24.4995 34.9997C24.4995 34.6397 24.5275 34.2937 24.5675 33.9857L22.5095 32.5057C21.6735 31.9037 21.4295 30.7757 21.9455 29.8817L23.5395 27.1197C24.0555 26.2257 25.1515 25.8717 26.0935 26.2957L28.4295 27.3497C28.9755 26.9497 29.5535 26.6137 30.1595 26.3437L30.4135 23.8017C30.5155 22.7757 31.3715 22.0017 32.4035 22.0017H35.5935C36.6255 22.0017 37.4815 22.7757 37.5835 23.8037L37.8375 26.3457C38.4455 26.6157 39.0235 26.9537 39.5675 27.3517L41.9035 26.2977C42.8455 25.8757 43.9435 26.2297 44.4575 27.1217L46.0515 29.8837C46.5675 30.7777 46.3235 31.9057 45.4875 32.5077L43.4295 33.9877C43.4695 34.2977 43.4975 34.6417 43.4975 35.0017C43.4975 35.3617 43.4695 35.7077 43.4295 36.0157L45.4875 37.4957C46.3235 38.0977 46.5675 39.2257 46.0515 40.1197L44.4595 42.8797C43.9435 43.7717 42.8495 44.1297 41.9055 43.7037L39.5695 42.6497C39.0235 43.0497 38.4455 43.3857 37.8395 43.6557L37.5835 46.1997C37.4815 47.2257 36.6255 47.9997 35.5935 47.9997ZM28.5695 40.4897C28.7995 40.4897 29.0275 40.5697 29.2115 40.7237C29.8895 41.2917 30.6395 41.7257 31.4375 42.0177C31.7975 42.1497 32.0515 42.4757 32.0895 42.8577L32.4055 45.9997H35.5955L35.9095 42.8577C35.9475 42.4757 36.2015 42.1497 36.5615 42.0177C37.3595 41.7257 38.1095 41.2897 38.7875 40.7237C39.0835 40.4777 39.4915 40.4217 39.8395 40.5797L42.7275 41.8837L44.3215 39.1217L41.7655 37.2857C41.4535 37.0617 41.2995 36.6777 41.3635 36.2997C41.4375 35.8777 41.4975 35.4477 41.4975 35.0037C41.4975 34.5597 41.4375 34.1297 41.3635 33.7077C41.2975 33.3297 41.4535 32.9477 41.7655 32.7217L44.3215 30.8857L42.7275 28.1237L39.8395 29.4257C39.4895 29.5837 39.0815 29.5277 38.7855 29.2817C38.1095 28.7137 37.3615 28.2797 36.5595 27.9877C36.1995 27.8557 35.9455 27.5297 35.9075 27.1477L35.5935 23.9997H32.4035L32.0895 27.1417C32.0515 27.5237 31.7975 27.8497 31.4375 27.9817C30.6395 28.2737 29.8895 28.7097 29.2115 29.2757C28.9175 29.5217 28.5095 29.5797 28.1595 29.4197L25.2715 28.1157L23.6775 30.8777L26.2335 32.7137C26.5455 32.9377 26.6995 33.3217 26.6355 33.6997C26.5615 34.1217 26.5015 34.5517 26.5015 34.9957C26.5015 35.4397 26.5615 35.8697 26.6355 36.2917C26.7015 36.6697 26.5455 37.0517 26.2335 37.2777L23.6775 39.1137L25.2715 41.8757L28.1595 40.5737C28.2915 40.5177 28.4295 40.4897 28.5695 40.4897Z" fill="#2B1D76"/>
</g>
<defs>
<clipPath id="clip0_1_201">
<rect width="48" height="48" fill="white"/>
</clipPath>
</defs>
</svg>
