<svg width="48" height="48" viewBox="0 0 48 48" fill="none" xmlns="http://www.w3.org/2000/svg">
<path fill-rule="evenodd" clip-rule="evenodd" d="M12.5803 10.548C12.5803 7.61932 14.9706 5.23682 17.9084 5.23682C20.8462 5.23682 23.2363 7.61932 23.2363 10.548C23.2363 13.4767 20.8463 15.8592 17.9084 15.8592C14.9704 15.8592 12.5803 13.4766 12.5803 10.548ZM14.01 10.5493C14.01 12.6918 15.7587 14.4347 17.9078 14.4347C20.057 14.4347 21.8055 12.6917 21.8055 10.5493C21.8055 8.40687 20.0571 6.66382 17.9078 6.66382C15.7585 6.66382 14.01 8.40677 14.01 10.5493Z" fill="#2B1D76"/>
<path fill-rule="evenodd" clip-rule="evenodd" d="M0 34.009C0 31.0804 2.39017 28.6979 5.32806 28.6979C8.26595 28.6979 10.6561 31.0805 10.656 34.009C10.656 36.9377 8.26595 39.3202 5.32806 39.3202C2.39007 39.3202 0 36.9376 0 34.009ZM1.42969 34.0103C1.42969 36.1528 3.17828 37.8958 5.3275 37.8958C7.47682 37.8958 9.22532 36.1528 9.22522 34.0103C9.22522 31.8678 7.47682 30.1249 5.3275 30.1249C3.17818 30.1249 1.42969 31.8679 1.42969 34.0103Z" fill="#2B1D76"/>
<path d="M44.9188 26.6279C44.3083 26.6279 43.7386 26.8029 43.2594 27.1047C43.1419 25.5425 41.8085 24.3068 40.1866 24.3068C39.3665 24.3068 38.62 24.6228 38.0673 25.1372C37.5221 24.2837 36.5548 23.7149 35.4544 23.7149C34.8476 23.7149 34.2809 23.888 33.8036 24.1864V18.5192C33.8023 16.8538 32.4202 15.4989 30.7225 15.4989C29.8996 15.4989 29.1261 15.8134 28.5442 16.3843C27.9621 16.9553 27.6415 17.7142 27.6415 18.5214V27.7686C27.2034 27.2333 26.6091 26.844 25.9225 26.6511C25.0453 26.4046 24.1225 26.5082 23.3243 26.9426C22.5263 27.377 21.9484 28.0902 21.6972 28.9508C21.4459 29.8114 21.5514 30.7165 21.9941 31.4989C22.4908 32.3779 22.5998 34.4415 22.5998 35.166C22.6004 35.2795 22.6252 37.9786 23.6479 40.7206C25.0576 44.5002 27.6675 46.4981 31.1955 46.4981H38.243C41.1906 46.4981 43.8236 45.0713 45.6568 42.4806C45.882 42.1623 45.8016 41.7252 45.4771 41.5042C45.1529 41.2833 44.7072 41.3623 44.4818 41.6806C43.3796 43.2382 41.4025 45.0951 38.2429 45.0951H31.1954C28.2899 45.0951 26.2063 43.4713 25.0023 40.269C24.0572 37.7551 24.0302 35.1846 24.03 35.1631C24.0302 34.861 24.0098 32.172 23.2447 30.8183C22.9874 30.3635 22.9261 29.8374 23.0721 29.3371C23.2182 28.8368 23.5542 28.4221 24.0181 28.1696C24.4821 27.917 25.0185 27.8567 25.5287 28C26.0386 28.1432 26.461 28.4728 26.7183 28.9284C27.4244 30.1767 27.6074 30.8841 27.6415 31.0368V35.1533C27.6415 35.5407 27.9616 35.8548 28.3566 35.8548C28.7516 35.8548 29.0718 35.5407 29.0718 35.1533V30.9731V18.5216C29.0718 18.0893 29.2436 17.6827 29.5554 17.3766C29.8673 17.0707 30.2817 16.9022 30.7224 16.9022C31.6321 16.9022 32.3727 17.6282 32.3732 18.5201V26.7379V30.6469C32.3732 31.0343 32.6934 31.3484 33.0884 31.3484C33.4833 31.3484 33.8035 31.0343 33.8035 30.6469V26.7379C33.8035 25.845 34.5442 25.1183 35.4544 25.1183C36.3645 25.1183 37.1052 25.8449 37.1052 26.7379V27.3298V29.8913C37.1052 30.2787 37.4254 30.5928 37.8204 30.5928C38.2153 30.5928 38.5355 30.2787 38.5355 29.8913V27.3298C38.5355 26.4367 39.2762 25.7102 40.1864 25.7102C41.0967 25.7102 41.8373 26.4367 41.8373 27.3298V29.6509V30.863C41.8373 31.2503 42.1575 31.5645 42.5524 31.5645C42.9474 31.5645 43.2676 31.2503 43.2676 30.863V29.6509C43.2676 28.7579 44.0083 28.0313 44.9185 28.0313C45.8288 28.0313 46.5694 28.7578 46.5694 29.6509V35.0042C46.5694 36.6305 46.2116 38.2952 45.5345 39.8181C45.3767 40.1733 45.5422 40.5867 45.9042 40.7416C46.2667 40.8965 46.6878 40.7342 46.8456 40.379C47.6006 38.6804 47.9998 36.8219 47.9998 35.0042V29.6509C47.9999 27.9838 46.6178 26.6279 44.9188 26.6279Z" fill="#2B1D76"/>
<path fill-rule="evenodd" clip-rule="evenodd" d="M33.6961 2.99401V14.3265C35.1072 15.2829 36.0361 16.8959 36.036 18.7215C36.036 19.4383 35.8949 20.1339 35.6169 20.7891C35.5015 21.0609 35.2366 21.2243 34.958 21.2243C34.8651 21.2243 34.7707 21.2063 34.6798 21.1679C34.3161 21.0146 34.146 20.5963 34.2998 20.2337C34.5028 19.7551 34.6058 19.2464 34.6058 18.7215C34.6058 16.579 32.8572 14.836 30.7079 14.836C28.5586 14.836 26.8101 16.5791 26.8101 18.7215C26.8101 19.2465 26.9131 19.7551 27.1162 20.2337C27.2702 20.5963 27.0999 21.0145 26.7362 21.1679C26.3723 21.3213 25.9528 21.1518 25.799 20.7891C25.521 20.1339 25.38 19.4383 25.38 18.7215C25.38 16.9095 26.2955 15.3075 27.6891 14.3485V2.99401C27.6891 1.34312 29.0365 0 30.6926 0C32.3488 0 33.6961 1.34312 33.6961 2.99401ZM30.7052 13.4117C31.247 13.4117 31.7699 13.4932 32.263 13.6438H32.2631V2.99528C32.2631 2.13055 31.5573 1.42698 30.6898 1.42698C29.8223 1.42698 29.1165 2.13055 29.1165 2.99528V13.6529C29.6185 13.4962 30.1521 13.4117 30.7052 13.4117Z" fill="#2B1D76"/>
<path d="M17.9645 0C16.3084 0 14.961 1.34312 14.961 2.99401V4.14861C14.961 4.54235 15.2812 4.86146 15.6761 4.86146C16.071 4.86146 16.3912 4.54225 16.3912 4.14861V2.99401C16.3912 2.12929 17.0971 1.42571 17.9645 1.42571C18.832 1.42571 19.5378 2.12929 19.5378 2.99401V4.20851C19.5378 4.60216 19.858 4.92137 20.2529 4.92137C20.6478 4.92137 20.9681 4.60216 20.9681 4.20851V2.99401C20.9681 1.34312 19.6207 0 17.9645 0Z" fill="#2B1D76"/>
<path d="M20.2529 37.6643C19.858 37.6643 19.5378 37.9835 19.5378 38.3772V45.0046C19.5378 45.4234 19.3742 45.8173 19.077 46.1136C18.7798 46.4098 18.3847 46.5729 17.9645 46.5729C17.0971 46.5729 16.3912 45.8694 16.3912 45.0046V16.946C16.3912 16.5524 16.071 16.2332 15.6761 16.2332C15.2812 16.2332 14.961 16.5524 14.961 16.946V45.0046C14.961 46.6555 16.3084 47.9986 17.9645 47.9986C18.7668 47.9986 19.5209 47.6872 20.0883 47.1216C20.6556 46.5561 20.9681 45.8043 20.9681 45.0046V38.3772C20.9681 37.9834 20.6478 37.6643 20.2529 37.6643Z" fill="#2B1D76"/>
<path d="M20.2503 16.1744C19.8554 16.1744 19.5352 16.4936 19.5352 16.8873V36.0019C19.5352 36.3956 19.8554 36.7148 20.2503 36.7148C20.6452 36.7148 20.9654 36.3956 20.9654 36.0019V16.8873C20.9654 16.4936 20.6452 16.1744 20.2503 16.1744Z" fill="#2B1D76"/>
<path d="M5.32009 0C3.66395 0 2.31656 1.34312 2.31656 2.99401V5.68082C2.31656 6.07446 2.63678 6.39367 3.03168 6.39367C3.42658 6.39367 3.7468 6.07446 3.7468 5.68082V2.99401C3.7468 2.12929 4.45262 1.42571 5.32009 1.42571C6.18757 1.42571 6.89338 2.12929 6.89338 2.99401V27.6357C6.89338 28.0294 7.21361 28.3486 7.6085 28.3486C8.0034 28.3486 8.32363 28.0294 8.32363 27.6357V2.99401C8.32363 1.34312 6.97624 0 5.32009 0Z" fill="#2B1D76"/>
<path d="M3.03168 7.34436C2.63678 7.34436 2.31656 7.66357 2.31656 8.05722V27.6453C2.31656 28.0389 2.63678 28.3581 3.03168 28.3581C3.42658 28.3581 3.7468 28.0389 3.7468 27.6453V8.05722C3.7468 7.66357 3.42667 7.34436 3.03168 7.34436Z" fill="#2B1D76"/>
<path d="M7.6075 39.6709C7.2126 39.6709 6.89238 39.9901 6.89238 40.3838V45.0048C6.89238 45.4235 6.72874 45.8175 6.43155 46.1137C6.13437 46.4099 5.73928 46.5731 5.31909 46.5731C4.45161 46.5731 3.7458 45.8695 3.7458 45.0048V40.3733C3.7458 39.9796 3.42557 39.6604 3.03067 39.6604C2.63578 39.6604 2.31555 39.9796 2.31555 40.3733V45.0048C2.31555 46.6557 3.66294 47.9988 5.31909 47.9988C6.1213 47.9988 6.87545 47.6873 7.44282 47.1218C8.01011 46.5562 8.32262 45.8044 8.32262 45.0048V40.3838C8.32262 39.9901 8.0024 39.6709 7.6075 39.6709Z" fill="#2B1D76"/>
</svg>
