<svg width="48" height="48" viewBox="0 0 48 48" fill="none" xmlns="http://www.w3.org/2000/svg">
<path d="M14.3797 18.6731C16.4573 18.6708 18.4492 17.8445 19.9184 16.3754C21.3876 14.9064 22.2141 12.9146 22.2166 10.8369C21.7861 0.440591 6.97255 0.442849 6.54346 10.837C6.54594 12.9145 7.37233 14.9062 8.84137 16.3752C10.3104 17.8443 12.3021 18.6706 14.3797 18.6731ZM14.3797 4.5C16.0597 4.50184 17.6705 5.17006 18.8585 6.35807C20.0465 7.54607 20.7147 9.15683 20.7166 10.8369C20.3981 19.2308 8.36086 19.2293 8.04346 10.8368C8.04527 9.15687 8.7134 7.54622 9.90125 6.35825C11.0891 5.17027 12.6997 4.50199 14.3797 4.5Z" fill="#2B1D76"/>
<path d="M14.3796 13.5271C13.4297 13.5271 12.7676 13.0159 12.7676 12.5566C12.7637 12.3603 12.683 12.1732 12.5428 12.0357C12.4026 11.8982 12.214 11.8211 12.0176 11.8211C11.8211 11.8212 11.6326 11.8982 11.4923 12.0357C11.3521 12.1733 11.2714 12.3603 11.2676 12.5567C11.3187 13.1691 11.5831 13.7441 12.0148 14.1815C12.4464 14.6189 13.018 14.8908 13.6296 14.9499V15.561C13.6296 15.7599 13.7087 15.9507 13.8493 16.0913C13.99 16.232 14.1807 16.311 14.3796 16.311C14.5785 16.311 14.7693 16.232 14.91 16.0913C15.0506 15.9507 15.1296 15.7599 15.1296 15.561V14.9499C15.7414 14.8909 16.313 14.6189 16.7449 14.1816C17.1767 13.7442 17.4412 13.1691 17.4924 12.5566C17.4924 11.1716 16.125 10.0869 14.3796 10.0869C13.4297 10.0869 12.7676 9.57564 12.7676 9.11637C12.8468 7.84812 15.9132 7.84701 15.9924 9.11643C15.9963 9.31281 16.077 9.49985 16.2172 9.63737C16.3575 9.77489 16.5461 9.85191 16.7425 9.8519C16.9389 9.85188 17.1275 9.77483 17.2677 9.63729C17.4079 9.49975 17.4886 9.3127 17.4924 9.11632C17.4412 8.50385 17.1766 7.92879 16.7448 7.49142C16.313 7.05405 15.7414 6.78213 15.1296 6.72307V6.11206C15.1296 5.91315 15.0506 5.72238 14.91 5.58173C14.7693 5.44108 14.5785 5.36206 14.3796 5.36206C14.1807 5.36206 13.99 5.44108 13.8493 5.58173C13.7087 5.72238 13.6296 5.91315 13.6296 6.11206V6.72313C10.0612 7.45073 10.769 11.5923 14.3797 11.5869C16.496 11.6423 16.4953 13.4718 14.3796 13.5271Z" fill="#2B1D76"/>
<path d="M7.77905 27.9888L6.96387 28.3879C6.78862 28.4774 6.65554 28.6321 6.59329 28.8188C6.53104 29.0054 6.5446 29.2091 6.63106 29.3858C6.71753 29.5626 6.86996 29.6983 7.05553 29.7637C7.24109 29.8291 7.44493 29.819 7.62312 29.7356C17.6489 24.9739 26.5873 18.1995 33.8818 9.83408V10.8369C33.8818 11.0358 33.9608 11.2266 34.1015 11.3672C34.2421 11.5079 34.4329 11.5869 34.6318 11.5869C34.8307 11.5869 35.0215 11.5079 35.1622 11.3672C35.3028 11.2266 35.3818 11.0358 35.3818 10.8369V7.79883C35.3736 7.60256 35.2919 7.41655 35.153 7.27765C35.0141 7.13874 34.8281 7.05708 34.6318 7.04883H31.5945C31.398 7.05246 31.2107 7.13307 31.073 7.27333C30.9354 7.41359 30.8582 7.6023 30.8582 7.79885C30.8582 7.9954 30.9354 8.18409 31.0731 8.32435C31.2108 8.4646 31.398 8.54521 31.5945 8.54883H33.0067C26.0012 16.6709 17.4183 23.2847 7.77905 27.9888Z" fill="#2B1D76"/>
<path d="M43.7446 43.5H41.4573V16.9116C41.4573 16.8131 41.438 16.7156 41.4003 16.6245C41.3626 16.5335 41.3074 16.4508 41.2377 16.3812C41.1681 16.3115 41.0854 16.2563 40.9944 16.2186C40.9033 16.1809 40.8058 16.1616 40.7073 16.1616H34.6326C34.5341 16.1616 34.4365 16.1809 34.3455 16.2186C34.2545 16.2563 34.1718 16.3115 34.1021 16.3812C34.0325 16.4508 33.9772 16.5335 33.9395 16.6245C33.9019 16.7156 33.8825 16.8131 33.8826 16.9116V43.5H32.3438V22.9871C32.3438 22.8885 32.3244 22.791 32.2868 22.7C32.2491 22.609 32.1939 22.5263 32.1242 22.4566C32.0546 22.3869 31.9718 22.3317 31.8808 22.294C31.7898 22.2564 31.6923 22.237 31.5938 22.2371H25.519C25.4205 22.237 25.323 22.2564 25.232 22.294C25.1409 22.3317 25.0582 22.3869 24.9886 22.4566C24.9189 22.5263 24.8637 22.609 24.826 22.7C24.7883 22.791 24.769 22.8885 24.769 22.9871V43.5H23.231V29.0617C23.231 28.9632 23.2117 28.8657 23.174 28.7747C23.1363 28.6836 23.0811 28.6009 23.0114 28.5313C22.9418 28.4616 22.8591 28.4064 22.768 28.3687C22.677 28.3311 22.5795 28.3117 22.481 28.3117H16.4062C16.3077 28.3117 16.2102 28.3311 16.1192 28.3687C16.0282 28.4064 15.9454 28.4616 15.8758 28.5313C15.8061 28.6009 15.7509 28.6836 15.7132 28.7747C15.6756 28.8657 15.6562 28.9632 15.6562 29.0617V43.5H14.1182V35.1372C14.1182 35.0387 14.0989 34.9411 14.0612 34.8501C14.0235 34.7591 13.9683 34.6764 13.8986 34.6068C13.829 34.5371 13.7463 34.4819 13.6552 34.4442C13.5642 34.4065 13.4667 34.3871 13.3682 34.3872H7.29346C7.19495 34.3871 7.0974 34.4065 7.00638 34.4442C6.91536 34.4819 6.83266 34.5371 6.763 34.6068C6.69335 34.6764 6.6381 34.7591 6.60043 34.8501C6.56276 34.9411 6.5434 35.0387 6.54346 35.1372V43.5H4.25537C4.05646 43.5 3.86569 43.579 3.72504 43.7197C3.58439 43.8603 3.50537 44.0511 3.50537 44.25C3.50537 44.4489 3.58439 44.6397 3.72504 44.7803C3.86569 44.921 4.05646 45 4.25537 45H43.7446C43.9409 44.996 44.1277 44.9152 44.2651 44.775C44.4025 44.6348 44.4794 44.4463 44.4794 44.25C44.4794 44.0537 44.4025 43.8652 44.2651 43.725C44.1277 43.5848 43.9409 43.504 43.7446 43.5ZM8.04346 43.5V35.8872H12.6182V43.5H8.04346ZM17.1562 43.5V29.8117H21.731V43.5H17.1562ZM26.269 43.5V23.7371H30.8438V43.5H26.269ZM35.3826 43.5V17.6616H39.9573V43.5H35.3826Z" fill="#2B1D76"/>
</svg>
