<svg width="32" height="32" viewBox="0 0 32 32" fill="none" xmlns="http://www.w3.org/2000/svg">
<path fill-rule="evenodd" clip-rule="evenodd" d="M16 2C12.287 2 8.72601 3.47499 6.10051 6.1005C3.475 8.72601 2 12.287 2 16C2 19.713 3.475 23.274 6.1005 25.8995C8.72601 28.525 12.287 30 16 30C19.713 30 23.274 28.525 25.8995 25.8995C28.525 23.274 30 19.713 30 16C30 12.287 28.525 8.72601 25.8995 6.1005C23.274 3.475 19.713 2 16 2ZM16 32C11.7565 32 7.68687 30.3143 4.68629 27.3137C1.68571 24.3131 -8.8487e-07 20.2435 -6.99382e-07 16C-5.13895e-07 11.7565 1.68571 7.68687 4.68629 4.68629C7.68687 1.68571 11.7565 -8.8487e-07 16 -6.99382e-07C20.2435 -5.13895e-07 24.3131 1.68571 27.3137 4.68629C30.3143 7.68687 32 11.7565 32 16C32 20.2435 30.3143 24.3131 27.3137 27.3137C24.3131 30.3143 20.2435 32 16 32ZM23 17C23.2652 17 23.5196 16.8946 23.7071 16.7071C23.8946 16.5196 24 16.2652 24 16C24 15.7348 23.8946 15.4804 23.7071 15.2929C23.5196 15.1054 23.2652 15 23 15L11.414 15L15.708 10.708C15.8958 10.5202 16.0013 10.2656 16.0013 10C16.0013 9.73445 15.8958 9.47977 15.708 9.292C15.5202 9.10423 15.2656 8.99874 15 8.99874C14.7344 8.99874 14.4798 9.10423 14.292 9.292L8.292 15.292C8.19887 15.3849 8.12499 15.4952 8.07457 15.6167C8.02416 15.7382 7.99821 15.8685 7.99821 16C7.99821 16.1315 8.02416 16.2618 8.07457 16.3833C8.12499 16.5048 8.19887 16.6151 8.292 16.708L14.292 22.708C14.4798 22.8958 14.7344 23.0013 15 23.0013C15.2655 23.0013 15.5202 22.8958 15.708 22.708C15.8958 22.5202 16.0013 22.2655 16.0013 22C16.0013 21.7344 15.8958 21.4798 15.708 21.292L11.414 17L23 17Z" fill="black" fill-opacity="0.6"/>
</svg>
