<svg width="62" height="62" viewBox="0 0 62 62" fill="none" xmlns="http://www.w3.org/2000/svg">
<path d="M48.9363 7.56603C49.3176 7.02474 49.1878 6.27705 48.6465 5.89589C43.4629 2.24555 37.3605 0.316162 30.999 0.316162C27.0168 0.316162 23.1418 1.06817 19.4816 2.5512C18.8682 2.79979 18.5724 3.49869 18.821 4.11213C19.0694 4.72558 19.768 5.02151 20.3819 4.77292C23.7548 3.40628 27.3267 2.71337 30.999 2.71337C36.8638 2.71337 42.4888 4.49161 47.2663 7.85585C47.4762 8.00352 47.717 8.07459 47.9554 8.07459C48.3321 8.07459 48.7029 7.89744 48.9363 7.56603Z" fill="#282734"/>
<path fill-rule="evenodd" clip-rule="evenodd" d="M56.4669 13.8815C59.8791 18.9482 61.6826 24.8679 61.6826 31.0005C61.6826 37.5762 59.6479 43.8077 55.7916 49.0803C56.3125 49.8206 56.6196 50.7219 56.6196 51.6939C56.6196 54.2054 54.5764 56.2486 52.0649 56.2486C49.5535 56.2486 47.5103 54.2054 47.5103 51.6939C47.5103 49.1825 49.5535 47.1392 52.0649 47.1392C52.7345 47.1392 53.37 47.2856 53.9432 47.5462C57.4407 42.7122 59.2854 37.0126 59.2854 31.0005C59.2854 25.3469 57.6232 19.8902 54.4784 15.2205C54.1087 14.6714 54.2541 13.9266 54.8031 13.5568C55.3521 13.1872 56.097 13.3323 56.4669 13.8815ZM49.9065 51.6943C49.9065 52.884 50.8744 53.8518 52.064 53.8518C53.2536 53.8518 54.2215 52.884 54.2215 51.6943C54.2215 50.5047 53.2536 49.5369 52.064 49.5369C50.8744 49.5369 49.9065 50.5047 49.9065 51.6943Z" fill="#282734"/>
<path fill-rule="evenodd" clip-rule="evenodd" d="M30.9994 59.2887C34.6717 59.2887 38.2437 58.5958 41.6164 57.2291C42.2297 56.9806 42.9287 57.2763 43.1774 57.89C43.426 58.5034 43.1302 59.2023 42.5168 59.4509C38.8566 60.9339 34.9816 61.6859 30.9994 61.6859C22.8034 61.6859 15.0979 58.4943 9.3023 52.6987C3.50694 46.9032 0.315186 39.1978 0.315186 31.0017C0.315186 24.4261 2.34993 18.1946 6.20619 12.922C5.68528 12.1816 5.3782 11.2804 5.3782 10.3083C5.3782 7.79692 7.42146 5.75366 9.93289 5.75366C12.4443 5.75366 14.4876 7.79692 14.4876 10.3083C14.4876 12.8198 12.4443 14.863 9.93289 14.863C9.26335 14.863 8.62785 14.7167 8.05468 14.4561C4.55716 19.2901 2.71239 24.9897 2.71239 31.0017C2.71239 46.5993 15.4019 59.2887 30.9994 59.2887ZM12.0911 10.3096C12.0911 9.11997 11.1232 8.1521 9.93361 8.1521C8.74399 8.1521 7.77612 9.11997 7.77612 10.3096C7.77612 11.4992 8.74399 12.4671 9.93361 12.4671C11.1232 12.4671 12.0911 11.4992 12.0911 10.3096Z" fill="#282734"/>
<path fill-rule="evenodd" clip-rule="evenodd" d="M26.4094 32.9259C26.4094 30.3951 28.4684 28.3362 30.9992 28.3362C33.5301 28.3362 35.589 30.3951 35.589 32.9259C35.589 33.9751 35.2393 34.9704 34.595 35.7791V39.3584C34.595 41.3411 32.982 42.9542 30.9992 42.9542C29.0165 42.9542 27.4034 41.3411 27.4034 39.3584V35.7791C26.7592 34.9706 26.4094 33.9751 26.4094 32.9259ZM32.1971 35.3256C32.1971 35.0076 32.3236 34.7027 32.5484 34.4779C32.9629 34.0637 33.1911 33.513 33.1911 32.9271C33.1911 31.7182 32.2075 30.7346 30.9985 30.7346C29.7895 30.7346 28.8059 31.7182 28.8059 32.9271C28.8059 33.513 29.0341 34.0636 29.4486 34.4779C29.6735 34.7026 29.7999 35.0076 29.7999 35.3256V39.3596C29.7999 40.0205 30.3376 40.5582 30.9985 40.5582C31.6594 40.5582 32.1971 40.0205 32.1971 39.3596V35.3256Z" fill="#282734"/>
<path fill-rule="evenodd" clip-rule="evenodd" d="M42.0208 21.3057V23.7631C43.5726 24.4236 44.6636 25.9637 44.6636 27.7539V43.5353C44.6636 45.9257 42.7188 47.8704 40.3286 47.8704H21.6704C19.2802 47.8704 17.3354 45.9257 17.3354 43.5353V27.7539C17.3354 25.9637 18.4264 24.4236 19.9782 23.7631V21.3057C19.9782 15.2285 24.9224 10.2844 30.9995 10.2844C37.0767 10.2844 42.0208 15.2285 42.0208 21.3057ZM30.9988 12.6829C26.2435 12.6829 22.3748 16.5516 22.3748 21.3069H22.3745V23.4202H24.8887V21.3069C24.8887 17.938 27.6295 15.197 30.9987 15.197C34.3678 15.197 37.1087 17.9379 37.1087 21.3069V23.4202H39.6229V21.3069C39.6229 16.5516 35.7541 12.6829 30.9988 12.6829ZM27.2893 23.4196V21.3063C27.2893 19.2591 28.9549 17.5936 31.0021 17.5936C33.0493 17.5936 34.7149 19.2591 34.7149 21.3063V23.4196H27.2893ZM40.3286 45.4734C41.397 45.4734 42.2664 44.604 42.2664 43.5355V27.7541C42.2664 26.6856 41.397 25.8163 40.3286 25.8163H21.6704C20.602 25.8163 19.7327 26.6855 19.7327 27.7541V43.5355C19.7327 44.604 20.602 45.4734 21.6704 45.4734H40.3286Z" fill="#282734"/>
<path d="M52.0648 11.5681C52.38 11.5681 52.6893 11.4411 52.9122 11.2181C53.135 10.9952 53.2634 10.686 53.2634 10.3707C53.2634 10.0543 53.1352 9.74505 52.9122 9.52211C52.6893 9.29917 52.3799 9.17212 52.0648 9.17212C51.7496 9.17212 51.4403 9.29917 51.2174 9.52211C50.9946 9.74505 50.8662 10.0543 50.8662 10.3707C50.8662 10.686 50.9945 10.994 51.2174 11.2181C51.4403 11.4411 51.7496 11.5681 52.0648 11.5681Z" fill="#282734"/>
</svg>
