<svg width="48" height="48" viewBox="0 0 48 48" fill="none" xmlns="http://www.w3.org/2000/svg">
<g clip-path="url(#clip0_1_235)">
<path d="M22.1488 32.5562C22.5154 32.1896 22.5154 31.5963 22.1488 31.2297C21.7819 30.8643 21.1875 30.8643 20.8202 31.2297C20.454 31.5963 20.454 32.1896 20.8202 32.5562C21.1875 32.9216 21.7819 32.9216 22.1488 32.5562Z" fill="#2B1D76"/>
<path d="M17.7017 10.3096C17.7017 15.9943 22.3356 20.6195 28.0314 20.6195C33.7273 20.6195 38.3612 15.9943 38.3612 10.3096C38.3612 4.62488 33.7273 0 28.0314 0C22.3356 0 17.7017 4.62488 17.7017 10.3096ZM36.4832 10.3096C36.4832 14.9608 32.6918 18.7449 28.0314 18.7449C23.3711 18.7449 19.5796 14.9608 19.5796 10.3096C19.5796 5.65869 23.3711 1.87463 28.0314 1.87463C32.6918 1.87463 36.4832 5.65869 36.4832 10.3096Z" fill="#2B1D76"/>
<path d="M10.8635 47.7228C11.2275 48.089 11.8201 48.0931 12.1889 47.7305L16.7417 43.254C17.5152 42.482 17.7504 41.339 17.4103 40.3455L18.3896 39.4029C18.9169 38.8946 19.6111 38.6144 20.3449 38.6144H32.8289C35.0437 38.6144 37.137 37.7655 38.724 36.2242C38.7893 36.1608 38.2283 36.8204 47.2407 26.0699C48.5775 24.4915 48.3775 22.1214 46.7946 20.7858C45.2215 19.4627 42.8651 19.6527 41.5247 21.204L35.9834 26.8883C35.2837 26.0288 34.2166 25.4931 33.0638 25.4931H22.592C21.1019 24.8709 19.5208 24.5559 17.8895 24.5559C13.3674 24.5559 9.41894 26.6404 7.29993 30.5486C6.4072 30.3798 5.46566 30.6493 4.78831 31.3254L0.32097 35.7972C-0.0437557 36.1623 -0.0444895 36.753 0.319503 37.1192L10.8635 47.7228ZM17.8891 26.4302C19.3275 26.4302 20.7181 26.7192 22.0233 27.289C22.1422 27.341 22.2702 27.3677 22.3997 27.3677H33.0638C34.082 27.3677 34.9421 28.1965 34.9421 29.242C34.9421 30.2758 34.0996 31.1166 33.0638 31.1166H25.4019C24.8835 31.1166 24.463 31.5363 24.463 32.0538C24.463 32.5716 24.8835 32.9909 25.4019 32.9909H33.0638C35.1351 32.9909 36.82 31.3092 36.82 29.242C36.82 29.0772 36.8083 28.9139 36.787 28.752C42.1474 23.2526 42.9033 22.4799 42.9356 22.4414C43.6049 21.653 44.793 21.553 45.5833 22.2181C46.3744 22.8857 46.4746 24.0707 45.8035 24.8636L37.3807 34.9131C36.1507 36.0916 34.5359 36.7402 32.8289 36.7402H20.3449C19.1216 36.7402 17.9636 37.2071 17.0852 38.0541L16.2871 38.8228L8.93019 31.4806C10.6496 28.2613 13.876 26.4302 17.8891 26.4302ZM6.11733 32.6499C6.42701 32.3409 6.90255 32.2852 7.28012 32.5181C7.44267 32.617 6.97594 32.1929 15.4138 40.6026C15.7892 40.9772 15.769 41.5741 15.4189 41.9235L11.5376 45.7398L2.31045 36.4604L6.11733 32.6499Z" fill="#2B1D76"/>
<path d="M26.9046 4.6864V5.78467C25.8115 6.17139 25.0263 7.21326 25.0263 8.4353C25.0263 9.98548 26.29 11.2471 27.8436 11.2471C28.3613 11.2471 28.7825 11.6675 28.7825 12.1842C28.7825 12.7009 28.3613 13.1213 27.8436 13.1213C27.4425 13.1213 27.0092 12.8698 26.6243 12.4124C26.2904 12.0161 25.6981 11.9652 25.3011 12.2981C24.9041 12.6314 24.8527 13.2224 25.1866 13.6187C25.6886 14.2145 26.279 14.6298 26.9046 14.8392V15.9331C26.9046 16.4509 27.3251 16.8702 27.8436 16.8702C28.362 16.8702 28.7825 16.4509 28.7825 15.9331V14.8348C29.8756 14.4478 30.6608 13.4059 30.6608 12.1842C30.6608 10.6337 29.3971 9.37244 27.8436 9.37244C27.3258 9.37244 26.9046 8.95203 26.9046 8.4353C26.9046 7.91858 27.3258 7.4978 27.8436 7.4978C28.1764 7.4978 28.5275 7.66736 28.8592 7.98779C29.232 8.34778 29.8264 8.33789 30.1871 7.96619C30.5478 7.59412 30.5379 7.00086 30.1655 6.64087C29.6888 6.18054 29.2118 5.92017 28.7825 5.77808V4.6864C28.7825 4.16858 28.362 3.7489 27.8436 3.7489C27.3251 3.7489 26.9046 4.16858 26.9046 4.6864Z" fill="#2B1D76"/>
</g>
<defs>
<clipPath id="clip0_1_235">
<rect width="48" height="48" fill="white"/>
</clipPath>
</defs>
</svg>
