<svg width="62" height="62" viewBox="0 0 62 62" fill="none" xmlns="http://www.w3.org/2000/svg">
<g clip-path="url(#clip0_2_1306)">
<path d="M23.3303 25.8863C16.2806 25.8863 10.5452 20.1509 10.5452 13.1013C10.5452 6.05155 16.2806 0.316162 23.3303 0.316162C30.38 0.316162 36.1153 6.05155 36.1153 13.1013C36.1153 20.1509 30.38 25.8863 23.3303 25.8863ZM23.3303 2.87318C17.6895 2.87318 13.1022 7.46047 13.1022 13.1013C13.1022 18.742 17.6895 23.3293 23.3303 23.3293C28.971 23.3293 33.5583 18.742 33.5583 13.1013C33.5583 7.46047 28.971 2.87318 23.3303 2.87318Z" fill="#282734"/>
<path d="M22.0508 54.0134H1.59467C0.888934 54.0134 0.316162 53.4406 0.316162 52.7349V42.5068C0.316162 36.1629 5.47878 31.0002 11.8227 31.0002H27.1648C27.8706 31.0002 28.4434 31.573 28.4434 32.2788C28.4434 32.9845 27.8706 33.5573 27.1648 33.5573H11.8227C6.8877 33.5573 2.87318 37.5718 2.87318 42.5068V51.4564H22.0508C22.7565 51.4564 23.3293 52.0292 23.3293 52.7349C23.3293 53.4406 22.7565 54.0134 22.0508 54.0134Z" fill="#282734"/>
<path d="M43.7841 51.4565C40.2606 51.4565 37.3916 48.5875 37.3916 45.0639C37.3916 41.5404 40.2606 38.6714 43.7841 38.6714C47.3077 38.6714 50.1767 41.5404 50.1767 45.0639C50.1767 48.5875 47.3077 51.4565 43.7841 51.4565ZM43.7841 41.2284C41.6695 41.2284 39.9486 42.9493 39.9486 45.0639C39.9486 47.1786 41.6695 48.8995 43.7841 48.8995C45.8988 48.8995 47.6197 47.1786 47.6197 45.0639C47.6197 42.9493 45.8988 41.2284 43.7841 41.2284Z" fill="#282734"/>
<path d="M45.8227 61.6842H41.7443C40.4249 61.6842 39.3305 60.6947 39.2001 59.3804L38.8753 56.1304C38.1006 55.7852 37.3616 55.3556 36.6635 54.8442L33.6769 56.1918C32.4777 56.739 31.0688 56.2813 30.4116 55.1383L28.3737 51.607C27.7139 50.464 28.0259 49.0219 29.0947 48.2522L31.7259 46.36C31.6748 45.9637 31.639 45.5239 31.639 45.0636C31.639 44.6034 31.6748 44.161 31.7259 43.7672L29.0947 41.875C28.0259 41.1054 27.7139 39.6632 28.3737 38.5202L30.4116 34.989C31.0713 33.846 32.4726 33.3934 33.6769 33.9355L36.6635 35.283C37.3616 34.7716 38.1006 34.342 38.8753 33.9968L39.2001 30.7469C39.3305 29.4351 40.4249 28.4456 41.7443 28.4456H45.8227C47.1422 28.4456 48.2366 29.4351 48.367 30.7494L48.6917 33.9994C49.4691 34.3446 50.208 34.7767 50.9035 35.2856L53.8901 33.938C55.0945 33.3985 56.4983 33.8511 57.1554 34.9915L59.1934 38.5228C59.8531 39.6658 59.5411 41.1079 58.4723 41.8776L55.8411 43.7698C55.8923 44.1661 55.9281 44.6059 55.9281 45.0662C55.9281 45.5264 55.8923 45.9688 55.8411 46.3626L58.4723 48.2548C59.5411 49.0244 59.8531 50.4666 59.1934 51.6096L57.158 55.1383C56.4983 56.2787 55.0996 56.7364 53.8927 56.1918L50.9061 54.8442C50.208 55.3556 49.4691 55.7852 48.6943 56.1304L48.367 59.3829C48.2366 60.6947 47.1422 61.6842 45.8227 61.6842ZM36.8425 52.0826C37.1366 52.0826 37.4281 52.1849 37.6633 52.3818C38.5301 53.108 39.489 53.6629 40.5093 54.0362C40.9695 54.205 41.2943 54.6218 41.3428 55.1101L41.7469 59.1272H45.8253L46.2268 55.1101C46.2753 54.6218 46.6001 54.205 47.0603 54.0362C48.0806 53.6629 49.0395 53.1054 49.9063 52.3818C50.2847 52.0673 50.8064 51.9957 51.2513 52.1977L54.9436 53.8649L56.9816 50.3336L53.7137 47.9863C53.3148 47.6999 53.1179 47.209 53.1997 46.7257C53.2943 46.1861 53.3711 45.6364 53.3711 45.0687C53.3711 44.5011 53.2943 43.9513 53.1997 43.4118C53.1154 42.9285 53.3148 42.4401 53.7137 42.1512L56.9816 39.8038L54.9436 36.2726L51.2513 37.9372C50.8038 38.1392 50.2822 38.0676 49.9037 37.7531C49.0395 37.0269 48.0832 36.472 47.0578 36.0987C46.5975 35.9299 46.2728 35.5132 46.2242 35.0248L45.8227 31H41.7443L41.3428 35.0171C41.2943 35.5055 40.9695 35.9223 40.5093 36.091C39.489 36.4644 38.5301 37.0218 37.6633 37.7454C37.2874 38.0599 36.7658 38.1341 36.3183 37.9295L32.626 36.2624L30.588 39.7936L33.8559 42.1409C34.2548 42.4273 34.4517 42.9183 34.3699 43.4016C34.2753 43.9411 34.1985 44.4908 34.1985 45.0585C34.1985 45.6262 34.2753 46.1759 34.3699 46.7154C34.4542 47.1987 34.2548 47.6871 33.8559 47.9761L30.588 50.3234L32.626 53.8546L36.3183 52.19C36.4871 52.1184 36.6635 52.0826 36.8425 52.0826Z" fill="#282734"/>
</g>
<defs>
<clipPath id="clip0_2_1306">
<rect width="61.3684" height="61.3684" fill="white" transform="translate(0.316162 0.316162)"/>
</clipPath>
</defs>
</svg>
