<svg width="48" height="49" viewBox="0 0 48 49" fill="none" xmlns="http://www.w3.org/2000/svg">
<path d="M38.0304 5.67065C38.3286 5.24727 38.227 4.66245 37.8037 4.36432C33.7492 1.50912 28.976 0 24.0003 0C20.8855 0 17.8546 0.588197 14.9917 1.74818C14.5119 1.94262 14.2805 2.48929 14.4749 2.96911C14.6693 3.44893 15.2157 3.6804 15.6959 3.48596C18.334 2.41701 21.1279 1.87503 24.0003 1.87503C28.5875 1.87503 32.9873 3.26592 36.7241 5.89734C36.8883 6.01284 37.0766 6.06844 37.2631 6.06844C37.5578 6.06844 37.8478 5.92987 38.0304 5.67065Z" fill="#2B1D76"/>
<path fill-rule="evenodd" clip-rule="evenodd" d="M43.9206 10.6107C46.5895 14.5738 48.0002 19.204 48.0002 24.0008C48.0002 29.1441 46.4087 34.0182 43.3924 38.1422C43.7998 38.7213 44.04 39.4263 44.04 40.1866C44.04 42.1509 42.4418 43.7491 40.4775 43.7491C38.5131 43.7491 36.9149 42.1509 36.9149 40.1866C36.9149 38.2222 38.5131 36.624 40.4775 36.624C41.0012 36.624 41.4982 36.7385 41.9466 36.9423C44.6822 33.1613 46.1252 28.7032 46.1252 24.0008C46.1252 19.5786 44.825 15.3106 42.3653 11.658C42.076 11.2285 42.1897 10.646 42.6192 10.3567C43.0486 10.0676 43.6313 10.1811 43.9206 10.6107ZM38.7889 40.1869C38.7889 41.1174 39.546 41.8744 40.4765 41.8744C41.4069 41.8744 42.164 41.1174 42.164 40.1869C42.164 39.2564 41.4069 38.4994 40.4765 38.4994C39.546 38.4994 38.7889 39.2564 38.7889 40.1869Z" fill="#2B1D76"/>
<path fill-rule="evenodd" clip-rule="evenodd" d="M24.0004 46.1269C26.8727 46.1269 29.6667 45.585 32.3047 44.5159C32.7844 44.3216 33.3312 44.5528 33.5257 45.0329C33.7201 45.5127 33.4888 46.0593 33.0089 46.2538C30.1461 47.4138 27.1152 48.002 24.0004 48.002C17.5896 48.002 11.5626 45.5056 7.02948 40.9724C2.49651 36.4393 0 30.4123 0 24.0016C0 18.8583 1.59152 13.9842 4.60779 9.86013C4.20035 9.28103 3.96015 8.57611 3.96015 7.81579C3.96015 5.85142 5.55834 4.25323 7.52271 4.25323C9.48708 4.25323 11.0853 5.85142 11.0853 7.81579C11.0853 9.78016 9.48708 11.3783 7.52271 11.3783C6.99901 11.3783 6.50194 11.2639 6.05362 11.0601C3.31796 14.8411 1.87503 19.2991 1.87503 24.0016C1.87503 36.2016 11.8004 46.1269 24.0004 46.1269ZM9.21076 7.81675C9.21076 6.88627 8.45372 6.12923 7.52323 6.12923C6.59275 6.12923 5.83571 6.88627 5.83571 7.81675C5.83571 8.74724 6.59275 9.50428 7.52323 9.50428C8.45372 9.50428 9.21076 8.74724 9.21076 7.81675Z" fill="#2B1D76"/>
<path fill-rule="evenodd" clip-rule="evenodd" d="M20.4092 25.5067C20.4092 23.5272 22.0196 21.9167 23.9992 21.9167C25.9788 21.9167 27.5892 23.5272 27.5892 25.5067C27.5892 26.3274 27.3157 27.1059 26.8117 27.7384V30.538C26.8117 32.0889 25.55 33.3506 23.9992 33.3506C22.4484 33.3506 21.1867 32.0889 21.1867 30.538V27.7384C20.6827 27.106 20.4092 26.3274 20.4092 25.5067ZM24.9357 27.3837C24.9357 27.135 25.0346 26.8965 25.2105 26.7206C25.5347 26.3967 25.7132 25.9659 25.7132 25.5076C25.7132 24.562 24.9439 23.7927 23.9982 23.7927C23.0525 23.7927 22.2832 24.562 22.2832 25.5076C22.2832 25.9659 22.4617 26.3966 22.7859 26.7206C22.9618 26.8964 23.0607 27.135 23.0607 27.3837V30.539C23.0607 31.0559 23.4813 31.4765 23.9982 31.4765C24.5151 31.4765 24.9357 31.0559 24.9357 30.539V27.3837Z" fill="#2B1D76"/>
<path fill-rule="evenodd" clip-rule="evenodd" d="M32.6208 16.4177V18.3397C33.8346 18.8564 34.6879 20.061 34.6879 21.4613V33.8051C34.6879 35.6748 33.1668 37.1959 31.2972 37.1959H16.7033C14.8337 37.1959 13.3126 35.6748 13.3126 33.8051V21.4613C13.3126 20.061 14.1659 18.8564 15.3797 18.3397V16.4177C15.3797 11.6643 19.2468 7.79712 24.0002 7.79712C28.7536 7.79712 32.6208 11.6643 32.6208 16.4177ZM23.9997 9.6731C20.2802 9.6731 17.2542 12.6991 17.2542 16.4186H17.254V18.0715H19.2205V16.4186C19.2205 13.7835 21.3643 11.6396 23.9996 11.6396C26.6348 11.6396 28.7786 13.7834 28.7786 16.4186V18.0715H30.7452V16.4186C30.7452 12.6991 27.7192 9.6731 23.9997 9.6731ZM21.0986 18.0708V16.4179C21.0986 14.8166 22.4013 13.5139 24.0026 13.5139C25.6039 13.5139 26.9067 14.8166 26.9067 16.4179V18.0708H21.0986ZM31.2972 35.321C32.1329 35.321 32.8128 34.641 32.8128 33.8052V21.4614C32.8128 20.6257 32.1329 19.9457 31.2972 19.9457H16.7032C15.8675 19.9457 15.1876 20.6256 15.1876 21.4614V33.8052C15.1876 34.641 15.8675 35.321 16.7032 35.321H31.2972Z" fill="#2B1D76"/>
<path d="M40.4768 8.80085C40.7234 8.80085 40.9653 8.70147 41.1396 8.52709C41.3139 8.35272 41.4143 8.11084 41.4143 7.86427C41.4143 7.61677 41.314 7.37489 41.1396 7.20051C40.9653 7.02613 40.7233 6.92676 40.4768 6.92676C40.2303 6.92676 39.9884 7.02613 39.814 7.20051C39.6397 7.37489 39.5393 7.61677 39.5393 7.86427C39.5393 8.11084 39.6396 8.35178 39.814 8.52709C39.9884 8.70147 40.2303 8.80085 40.4768 8.80085Z" fill="#2B1D76"/>
</svg>
