<svg width="62" height="62" viewBox="0 0 62 62" fill="none" xmlns="http://www.w3.org/2000/svg">
<path fill-rule="evenodd" clip-rule="evenodd" d="M16.3989 13.8023C16.3989 10.0579 19.455 7.01172 23.2111 7.01172C26.9672 7.01172 30.0232 10.0579 30.0232 13.8023C30.0232 17.5468 26.9674 20.5929 23.2111 20.5929C19.4548 20.5929 16.3989 17.5466 16.3989 13.8023ZM18.2271 13.8037C18.2271 16.543 20.4628 18.7714 23.2106 18.7714C25.9585 18.7714 28.194 16.5429 28.194 13.8037C28.194 11.0645 25.9586 8.83594 23.2106 8.83594C20.4626 8.83594 18.2271 11.0644 18.2271 13.8037Z" fill="#282734"/>
<path fill-rule="evenodd" clip-rule="evenodd" d="M0.313721 43.7984C0.313721 40.054 3.36967 37.0078 7.12591 37.0078C10.8821 37.0078 13.9381 40.0541 13.938 43.7984C13.938 47.5429 10.8821 50.589 7.12591 50.589C3.36955 50.589 0.313721 47.5427 0.313721 43.7984ZM2.14185 43.7998C2.14185 46.5391 4.37751 48.7675 7.1254 48.7675C9.87341 48.7675 12.1089 46.5391 12.1088 43.7998C12.1088 41.0605 9.87341 38.832 7.1254 38.832C4.37739 38.832 2.14185 41.0606 2.14185 43.7998Z" fill="#282734"/>
<path d="M57.7451 34.361C56.9645 34.361 56.2362 34.5848 55.6235 34.9706C55.4733 32.9734 53.7685 31.3934 51.6948 31.3934C50.6462 31.3934 49.6918 31.7975 48.9851 32.4551C48.2881 31.3639 47.0513 30.6367 45.6445 30.6367C44.8685 30.6367 44.1441 30.858 43.5337 31.2394V23.9937C43.5322 21.8644 41.765 20.1321 39.5945 20.1321C38.5424 20.1321 37.5534 20.5342 36.8093 21.2641C36.0651 21.9941 35.6552 22.9644 35.6552 23.9964V35.8195C35.0951 35.135 34.3352 34.6374 33.4574 34.3907C32.3358 34.0756 31.156 34.208 30.1355 34.7635C29.1151 35.3188 28.3763 36.2306 28.0551 37.331C27.7338 38.4313 27.8687 39.5885 28.4347 40.5889C29.0698 41.7128 29.2092 44.3511 29.2092 45.2774C29.2099 45.4226 29.2416 48.8735 30.5492 52.3793C32.3516 57.2117 35.6884 59.7661 40.1992 59.7661H49.2098C52.9784 59.7661 56.3448 57.9419 58.6887 54.6295C58.9767 54.2226 58.8738 53.6637 58.4589 53.3812C58.0444 53.0987 57.4746 53.1997 57.1864 53.6066C55.7771 55.5982 53.2493 57.9723 49.2096 57.9723H40.1991C36.4842 57.9723 33.8202 55.8962 32.2809 51.8019C31.0726 48.5877 31.0379 45.3012 31.0377 45.2737C31.0379 44.8874 31.0118 41.4495 30.0337 39.7187C29.7047 39.1372 29.6263 38.4646 29.813 37.8249C29.9998 37.1852 30.4294 36.655 31.0225 36.3322C31.6158 36.0092 32.3016 35.9322 32.9539 36.1154C33.6058 36.2984 34.1458 36.7199 34.4748 37.3024C35.3776 38.8983 35.6116 39.8028 35.6552 39.998V45.2612C35.6552 45.7565 36.0645 46.1582 36.5696 46.1582C37.0746 46.1582 37.4839 45.7565 37.4839 45.2612V39.9166V23.9968C37.4839 23.4441 37.7036 22.9242 38.1023 22.5328C38.501 22.1417 39.0309 21.9263 39.5944 21.9263C40.7573 21.9263 41.7042 22.8545 41.705 23.9948V34.5017V39.4995C41.705 39.9948 42.1143 40.3965 42.6193 40.3965C43.1243 40.3965 43.5336 39.9948 43.5336 39.4995V34.5017C43.5336 33.36 44.4806 32.431 45.6443 32.431C46.808 32.431 47.7551 33.3599 47.7551 34.5017V35.2584V38.5335C47.7551 39.0288 48.1644 39.4304 48.6694 39.4304C49.1744 39.4304 49.5837 39.0288 49.5837 38.5335V35.2584C49.5837 34.1166 50.5307 33.1877 51.6946 33.1877C52.8584 33.1877 53.8053 34.1166 53.8053 35.2584V38.2261V39.7758C53.8053 40.2711 54.2146 40.6727 54.7196 40.6727C55.2246 40.6727 55.6339 40.2711 55.6339 39.7758V38.2261C55.6339 37.0844 56.5809 36.1554 57.7448 36.1554C58.9086 36.1554 59.8555 37.0843 59.8555 38.2261V45.0706C59.8555 47.1498 59.398 49.2782 58.5324 51.2255C58.3306 51.6796 58.5421 52.2081 59.005 52.4062C59.4684 52.6042 60.0069 52.3966 60.2086 51.9425C61.174 49.7708 61.6843 47.3946 61.6843 45.0706V38.2261C61.6845 36.0946 59.9173 34.361 57.7451 34.361Z" fill="#282734"/>
<path fill-rule="evenodd" clip-rule="evenodd" d="M43.3958 4.1444V18.6335C45.1999 19.8564 46.3876 21.9187 46.3874 24.2527C46.3874 25.1692 46.2071 26.0586 45.8516 26.8963C45.7041 27.2439 45.3654 27.4528 45.0092 27.4528C44.8904 27.4528 44.7697 27.4298 44.6534 27.3806C44.1885 27.1847 43.9709 26.6498 44.1677 26.1862C44.4271 25.5743 44.5588 24.9238 44.5588 24.2527C44.5588 21.5134 42.3231 19.285 39.5753 19.285C36.8272 19.285 34.5917 21.5136 34.5917 24.2527C34.5917 24.924 34.7234 25.5743 34.983 26.1862C35.1799 26.6498 34.9622 27.1845 34.4972 27.3806C34.032 27.5767 33.4956 27.36 33.299 26.8963C32.9435 26.0586 32.7632 25.1692 32.7632 24.2527C32.7632 21.9361 33.9337 19.8878 35.7155 18.6617V4.1444C35.7155 2.03365 37.4382 0.316406 39.5557 0.316406C41.6731 0.316406 43.3958 2.03365 43.3958 4.1444ZM39.5718 17.4636C40.2645 17.4636 40.933 17.5679 41.5635 17.7604H41.5636V4.14578C41.5636 3.04018 40.6612 2.14062 39.5521 2.14062C38.4429 2.14062 37.5405 3.04018 37.5405 4.14578V17.772C38.1824 17.5717 38.8646 17.4636 39.5718 17.4636Z" fill="#282734"/>
<path d="M23.2826 0.316406C21.1651 0.316406 19.4424 2.03365 19.4424 4.1444V5.62061C19.4424 6.12402 19.8518 6.53203 20.3567 6.53203C20.8616 6.53203 21.271 6.1239 21.271 5.62061V4.1444C21.271 3.03881 22.1734 2.13925 23.2826 2.13925C24.3917 2.13925 25.2941 3.03881 25.2941 4.1444V5.6972C25.2941 6.20049 25.7035 6.60862 26.2084 6.60862C26.7133 6.60862 27.1227 6.20049 27.1227 5.6972V4.1444C27.1227 2.03365 25.4 0.316406 23.2826 0.316406Z" fill="#282734"/>
<path d="M26.2084 48.4721C25.7035 48.4721 25.2941 48.8802 25.2941 49.3835V57.8571C25.2941 58.3925 25.0849 58.8961 24.7049 59.2749C24.3249 59.6537 23.8198 59.8622 23.2826 59.8622C22.1734 59.8622 21.271 58.9627 21.271 57.8571V21.9827C21.271 21.4794 20.8616 21.0713 20.3567 21.0713C19.8518 21.0713 19.4424 21.4794 19.4424 21.9827V57.8571C19.4424 59.9678 21.1651 61.6851 23.2826 61.6851C24.3083 61.6851 25.2724 61.2869 25.9979 60.5638C26.7232 59.8406 27.1227 58.8795 27.1227 57.8571V49.3835C27.1227 48.8801 26.7133 48.4721 26.2084 48.4721Z" fill="#282734"/>
<path d="M26.2046 20.9961C25.6997 20.9961 25.2903 21.4042 25.2903 21.9075V46.3465C25.2903 46.8498 25.6997 47.258 26.2046 47.258C26.7095 47.258 27.1189 46.8498 27.1189 46.3465V21.9075C27.1189 21.4041 26.7095 20.9961 26.2046 20.9961Z" fill="#282734"/>
<path d="M7.11507 0.316406C4.99761 0.316406 3.2749 2.03365 3.2749 4.1444V7.57961C3.2749 8.08291 3.68433 8.49103 4.18922 8.49103C4.69412 8.49103 5.10354 8.08291 5.10354 7.57961V4.1444C5.10354 3.03881 6.00596 2.13925 7.11507 2.13925C8.22418 2.13925 9.1266 3.03881 9.1266 4.1444V35.6501C9.1266 36.1534 9.53602 36.5615 10.0409 36.5615C10.5458 36.5615 10.9552 36.1534 10.9552 35.6501V4.1444C10.9552 2.03365 9.23253 0.316406 7.11507 0.316406Z" fill="#282734"/>
<path d="M4.18922 9.7063C3.68433 9.7063 3.2749 10.1144 3.2749 10.6177V35.662C3.2749 36.1653 3.68433 36.5735 4.18922 36.5735C4.69412 36.5735 5.10354 36.1653 5.10354 35.662V10.6177C5.10354 10.1144 4.69424 9.7063 4.18922 9.7063Z" fill="#282734"/>
<path d="M10.0409 51.0376C9.53602 51.0376 9.1266 51.4457 9.1266 51.949V57.8572C9.1266 58.3926 8.91738 58.8963 8.53741 59.275C8.15745 59.6538 7.65231 59.8623 7.11507 59.8623C6.00596 59.8623 5.10354 58.9628 5.10354 57.8572V51.9356C5.10354 51.4323 4.69412 51.0242 4.18922 51.0242C3.68433 51.0242 3.2749 51.4323 3.2749 51.9356V57.8572C3.2749 59.9679 4.99761 61.6852 7.11507 61.6852C8.14074 61.6852 9.10496 61.287 9.83038 60.5639C10.5557 59.8408 10.9552 58.8796 10.9552 57.8572V51.949C10.9552 51.4457 10.5458 51.0376 10.0409 51.0376Z" fill="#282734"/>
</svg>
