<svg width="15" height="14" viewBox="0 0 15 14" fill="none" xmlns="http://www.w3.org/2000/svg">
<path d="M14.6745 6.34456C14.9697 6.06425 15.074 5.65284 14.9466 5.27041C14.8189 4.88797 14.4865 4.61497 14.078 4.55704L10.4461 4.04293C10.2914 4.02098 10.1577 3.92647 10.0886 3.78983L8.4649 0.58404C8.28258 0.223843 7.91254 0 7.50015 0C7.08806 0 6.71802 0.223843 6.5357 0.58404L4.91167 3.79012C4.84259 3.92676 4.70863 4.02128 4.55395 4.04322L0.922033 4.55733C0.513848 4.61497 0.181053 4.88827 0.0534012 5.2707C-0.0739501 5.65314 0.0302737 6.06454 0.325525 6.34486L2.95335 8.8402C3.06538 8.9467 3.11674 9.10003 3.09031 9.24984L2.47037 12.7734C2.41541 13.0836 2.49891 13.3852 2.70495 13.6231C3.02513 13.9939 3.5841 14.1068 4.03103 13.878L7.27909 12.2142C7.41485 12.1449 7.58575 12.1455 7.72121 12.2142L10.9696 13.878C11.1276 13.959 11.2961 14 11.47 14C11.7874 14 12.0884 13.8625 12.2953 13.6231C12.5017 13.3852 12.5849 13.083 12.5299 12.7734L11.9097 9.24984C11.8833 9.09974 11.9346 8.9467 12.0467 8.8402L14.6745 6.34456Z" fill="#FFB938"/>
</svg>
